HIERARCHY
ROOT Hips
{
	OFFSET 0.00000 0.00000 0.00000
	CHANNELS 6 Xposition Yposition Zposition Zrotation Yrotation Xrotation 
	JOINT LHipJoint
	{
		OFFSET 0 0 0
		CHANNELS 3 Zrotation Yrotation Xrotation
		JOINT LeftUpLeg
		{
			OFFSET 1.75344 -1.53157 0.77399
			CHANNELS 3 Zrotation Yrotation Xrotation
			JOINT LeftLeg
			{
				OFFSET 2.25415 -6.19323 0.00000
				CHANNELS 3 Zrotation Yrotation Xrotation
				JOINT LeftFoot
				{
					OFFSET 2.30342 -6.32861 0.00000
					CHANNELS 3 Zrotation Yrotation Xrotation
					JOINT LeftToeBase
					{
						OFFSET 0.10958 -0.30108 1.49206
						CHANNELS 3 Zrotation Yrotation Xrotation
						End Site
						{
							OFFSET 0.00000 -0.00000 0.77783
						}
					}
				}
			}
		}
	}
	JOINT RHipJoint
	{
		OFFSET 0 0 0
		CHANNELS 3 Zrotation Yrotation Xrotation
		JOINT RightUpLeg
		{
			OFFSET -1.81912 -1.53156 0.77399
			CHANNELS 3 Zrotation Yrotation Xrotation
			JOINT RightLeg
			{
				OFFSET -2.22882 -6.12365 0.00000
				CHANNELS 3 Zrotation Yrotation Xrotation
				JOINT RightFoot
				{
					OFFSET -2.21943 -6.09785 0.00000
					CHANNELS 3 Zrotation Yrotation Xrotation
					JOINT RightToeBase
					{
						OFFSET -0.18931 -0.52012 1.59379
						CHANNELS 3 Zrotation Yrotation Xrotation
						End Site
						{
							OFFSET -0.00000 -0.00000 0.84686
						}
					}
				}
			}
		}
	}
	JOINT LowerBack
	{
		OFFSET 0 0 0
		CHANNELS 3 Zrotation Yrotation Xrotation
		JOINT Spine
		{
			OFFSET -0.00200 1.66634 -0.14248
			CHANNELS 3 Zrotation Yrotation Xrotation
			JOINT Spine1
			{
				OFFSET -0.00875 1.64542 0.09514
				CHANNELS 3 Zrotation Yrotation Xrotation
				JOINT Neck
				{
					OFFSET 0 0 0
					CHANNELS 3 Zrotation Yrotation Xrotation
					JOINT Neck1
					{
						OFFSET 0.02257 1.59605 0.00839
						CHANNELS 3 Zrotation Yrotation Xrotation
						JOINT Head
						{
							OFFSET -0.10214 1.57530 -0.23335
							CHANNELS 3 Zrotation Yrotation Xrotation
							End Site
							{
								OFFSET -0.03588 1.60717 -0.08062
							}
						}
					}
				}
				JOINT LeftShoulder
				{
					OFFSET 0 0 0
					CHANNELS 3 Zrotation Yrotation Xrotation
					JOINT LeftArm
					{
						OFFSET 2.54983 1.10186 0.40078
						CHANNELS 3 Zrotation Yrotation Xrotation
						JOINT LeftForeArm
						{
							OFFSET 4.28840 -0.00000 0.00000
							CHANNELS 3 Zrotation Yrotation Xrotation
							JOINT LeftHand
							{
								OFFSET 3.06552 -0.00000 -0.00000
								CHANNELS 3 Zrotation Yrotation Xrotation
								JOINT LeftFingerBase
								{
									OFFSET 0 0 0
									CHANNELS 3 Zrotation Yrotation Xrotation
									JOINT LeftHandIndex1
									{
										OFFSET 0.75304 -0.00000 0.00000
										CHANNELS 3 Zrotation Yrotation Xrotation
										End Site
										{
											OFFSET 0.60712 -0.00000 0.00000
										}
									}
								}
								JOINT LThumb
								{
									OFFSET 0 0 0
									CHANNELS 3 Zrotation Yrotation Xrotation
									End Site
									{
										OFFSET 0.61639 -0.00000 0.61639
									}
								}
							}
						}
					}
				}
				JOINT RightShoulder
				{
					OFFSET 0 0 0
					CHANNELS 3 Zrotation Yrotation Xrotation
					JOINT RightArm
					{
						OFFSET -2.60909 1.35448 0.21802
						CHANNELS 3 Zrotation Yrotation Xrotation
						JOINT RightForeArm
						{
							OFFSET -4.52172 -0.00000 -0.00000
							CHANNELS 3 Zrotation Yrotation Xrotation
							JOINT RightHand
							{
								OFFSET -2.89140 -0.00000 0.00000
								CHANNELS 3 Zrotation Yrotation Xrotation
								JOINT RightFingerBase
								{
									OFFSET 0 0 0
									CHANNELS 3 Zrotation Yrotation Xrotation
									JOINT RightHandIndex1
									{
										OFFSET -0.68054 -0.00000 0.00000
										CHANNELS 3 Zrotation Yrotation Xrotation
										End Site
										{
											OFFSET -0.54867 -0.00000 0.00000
										}
									}
								}
								JOINT RThumb
								{
									OFFSET 0 0 0
									CHANNELS 3 Zrotation Yrotation Xrotation
									End Site
									{
										OFFSET -0.55705 -0.00000 0.55705
									}
								}
							}
						}
					}
				}
			}
		}
	}
}
MOTION
Frames: 14
Frame Time: .0083333
7.7088 15.5452 22.4072 0 0 0 0 0 0 -21 0 0 0 0 0 0 0 0 0 0 0 0 0 0 21 0 0 0 0 0 0 0 0 0 0 0 0 0 0 0 0 0 0 0 0 0 0 -16 0 0 21 0 0 11 0 0 0 -8 0 0 0 0 0 0 0 0 0 0 0 0 0 0 0 0 0 0 0 0 8 0 0 0 0 0 0 0 0 0 0 0 0 0 0 0 0 0
7.7088 15.5452 22.4072 -179.2850 6.9206 -178.7120 0.0000 0.0000 0.0000 -25.9362 -24.6022 4.5817 1.2748 7.1558 20.1777 1.3682 13.0807 -30.2479 0.0885 -1.9182 -5.2797 0.0000 0.0000 0.0000 27.4901 20.6743 8.3148 -0.4091 -4.1059 11.3749 1.7207 -26.3598 -25.0784 -0.0020 -0.2889 0.7937 0.6321 1.7800 8.9012 0.2540 2.6400 -5.4405 -0.5698 1.2858 -10.8365 -7.2690 -2.4717 -4.6018 7.3529 -3.1131 2.9004 3.6250 -1.4599 2.0239 0.0000 0.0000 0.0000 -86.7525 19.5178 36.9554 19.9663 -30.6017 -5.5142 -0.0000 -0.0000 9.8399 0.4034 -33.0272 -0.2199 -7.1250 0.0000 -0.0000 -17.5747 -1.7208 19.0009 0.0000 0.0000 0.0000 85.0726 -19.7622 46.2662 -20.9608 31.7826 -6.0293 0.0000 0.0000 15.3672 -5.7969 -55.1170 4.7606 7.1250 -0.0000 -0.0000 76.7592 -73.9192 -59.9799
7.7102 15.5455 22.4085 -179.3000 6.7094 -178.7040 0.0000 0.0000 0.0000 -25.9246 -24.6585 4.5517 1.2753 7.1571 20.1815 1.3632 13.0026 -30.1490 0.0858 -1.8898 -5.2012 0.0000 0.0000 0.0000 27.4807 20.5851 8.2895 -0.4084 -4.1024 11.3648 1.7120 -26.3851 -25.2250 -0.0035 -0.3823 1.0504 0.6889 1.7290 8.6406 0.2204 2.5615 -5.2698 -0.6089 1.2433 -10.4857 -7.3560 -2.4706 -4.5237 7.4865 -3.1009 2.5745 3.6878 -1.4524 1.9066 -0.0000 -0.0000 0.0000 -86.7534 19.3180 36.8092 19.9859 -30.6253 -5.5242 -0.0000 -0.0000 9.7724 0.6357 -32.7866 -0.3442 -7.1250 0.0000 -0.0000 -17.4466 -1.5102 18.7843 -0.0000 -0.0000 0.0000 85.0320 -19.4750 46.5513 -20.8606 31.6652 -5.9766 0.0000 0.0000 15.3998 -6.1367 -54.8256 5.0225 7.1250 -0.0000 -0.0000 75.6450 -73.9880 -58.9912
7.7115 15.5463 22.4089 -179.3520 6.5238 -178.6950 0.0000 0.0000 0.0000 -25.9594 -24.6893 4.5354 1.2714 7.1465 20.1501 1.3238 13.0645 -29.9429 0.1259 -2.2877 -6.3013 0.0000 0.0000 0.0000 27.4400 20.5895 8.2953 -0.4088 -4.1046 11.3710 1.6915 -26.4052 -25.4739 -0.0064 -0.5176 1.4222 0.6326 1.7020 8.6349 0.2304 2.5175 -5.2523 -0.5583 1.2263 -10.4660 -7.4946 -2.4682 -4.4686 7.5868 -3.0924 2.4870 3.7506 -1.4484 1.8731 0.0000 0.0000 0.0000 -86.8223 19.3599 36.6851 19.9989 -30.6410 -5.5308 -0.0000 -0.0000 9.7794 0.6850 -32.8653 -0.3717 -7.1250 0.0000 -0.0000 -17.4210 -1.5892 18.7779 0.0000 0.0000 0.0000 84.9041 -19.4875 46.8420 -20.7792 31.5697 -5.9339 0.0000 0.0000 15.3658 -6.3612 -54.7624 5.2027 7.1250 -0.0000 -0.0000 75.3513 -74.0571 -58.7904
7.7134 15.5485 22.4086 -179.3560 6.3716 -178.5970 0.0000 0.0000 0.0000 -25.9272 -24.8527 4.4695 1.2695 7.1414 20.1351 1.3025 13.1764 -29.8993 0.1545 -2.5330 -6.9811 0.0000 0.0000 0.0000 27.4019 20.5849 8.1931 -0.4080 -4.1006 11.3599 1.6748 -26.3938 -25.6092 -0.0101 -0.6486 1.7825 0.5911 1.6985 8.6191 0.2539 2.5129 -5.2878 -0.5095 1.2291 -10.4992 -7.5845 -2.4663 -4.4940 7.6310 -3.0847 2.4848 3.7842 -1.4443 1.8799 0.0000 0.0000 0.0000 -86.9074 19.4085 36.5321 20.0222 -30.6690 -5.5427 -0.0000 -0.0000 9.7577 0.3007 -32.9341 -0.1635 -7.1250 0.0000 -0.0000 -17.6289 -1.6240 19.0359 0.0000 0.0000 0.0000 84.8399 -19.5584 46.9159 -20.7032 31.4803 -5.8942 0.0000 0.0000 15.5602 -7.0005 -54.4595 5.7059 7.1250 -0.0000 -0.0000 74.0768 -74.2280 -57.7757
7.7149 15.5508 22.4086 -179.3270 6.2424 -178.4620 0.0000 0.0000 0.0000 -25.8138 -24.9531 4.3217 1.2678 7.1367 20.1211 1.3052 13.1192 -29.8679 0.1527 -2.5182 -6.9400 0.0000 0.0000 0.0000 27.3704 20.5287 8.0212 -0.4070 -4.0954 11.3452 1.6675 -26.3559 -25.5908 -0.0152 -0.7969 2.1903 0.6715 1.7174 8.3835 0.2211 2.5414 -5.2282 -0.5844 1.2379 -10.2864 -7.4824 -2.4972 -4.5795 7.5568 -3.1245 2.4936 3.7360 -1.4630 1.8973 -0.0000 -0.0000 0.0000 -86.8603 19.2644 36.5511 20.0363 -30.6860 -5.5499 -0.0000 -0.0000 9.5480 0.0335 -32.9343 -0.0182 -7.1250 0.0000 -0.0000 -17.7728 -1.6032 19.2011 -0.0000 -0.0000 0.0000 84.9267 -19.4818 46.7662 -20.5379 31.2850 -5.8081 0.0000 0.0000 16.1914 -8.1297 -53.5391 6.5539 7.1250 -0.0000 -0.0000 70.4207 -74.4229 -54.5738
7.7154 15.5514 22.4091 -179.3110 6.2280 -178.3640 0.0000 0.0000 0.0000 -25.7406 -24.9456 4.2045 1.2659 7.1317 20.1061 1.3232 12.9582 -29.8473 0.1246 -2.2757 -6.2683 0.0000 0.0000 0.0000 27.3288 20.5105 7.8711 -0.4065 -4.0931 11.3387 1.7028 -26.4097 -25.3745 -0.0114 -0.6890 1.8935 0.7696 1.7846 8.2104 0.1599 2.6354 -5.1858 -0.7128 1.2755 -10.1274 -7.4044 -2.5151 -4.5857 7.5402 -3.1527 2.5201 3.7139 -1.4760 1.9071 -0.0000 -0.0000 0.0000 -86.7704 19.1799 36.5690 20.0207 -30.6673 -5.5419 -0.0000 -0.0000 9.3953 0.1712 -33.1963 -0.0937 -7.1250 0.0000 -0.0000 -17.7014 -1.8635 19.1960 -0.0000 -0.0000 0.0000 85.0552 -19.4578 46.7577 -20.8619 31.6668 -5.9773 0.0000 0.0000 15.1804 -7.9320 -54.4503 6.4675 7.1250 -0.0000 -0.0000 73.7205 -74.5678 -57.8266
7.7164 15.5514 22.4090 -179.2880 6.1924 -178.3410 0.0000 0.0000 0.0000 -25.7244 -25.0030 4.2198 1.2649 7.1291 20.0984 1.3053 13.0052 -29.7690 0.1397 -2.4085 -6.6361 0.0000 0.0000 0.0000 27.3452 20.5146 7.8339 -0.4064 -4.0925 11.3370 1.7458 -26.5225 -25.2222 -0.0080 -0.5767 1.5848 0.8549 1.8391 8.2739 0.1084 2.7166 -5.2107 -0.8324 1.3061 -10.1854 -7.3813 -2.5200 -4.6096 7.5856 -3.1636 2.6116 3.7256 -1.4792 1.9434 0.0000 0.0000 0.0000 -86.6477 19.2802 36.6243 20.0449 -30.6964 -5.5542 -0.0000 -0.0000 9.2989 0.4464 -33.4768 -0.2463 -7.1250 0.0000 -0.0000 -17.5574 -2.1528 19.1115 0.0000 0.0000 0.0000 85.1239 -19.5980 46.7577 -21.0446 31.8804 -6.0735 0.0000 0.0000 15.1514 -7.5266 -55.1156 6.1857 7.1250 -0.0000 -0.0000 76.2346 -74.5464 -60.1976
7.7184 15.5518 22.4086 -179.2880 6.0172 -178.4050 0.0000 0.0000 0.0000 -25.7565 -25.0940 4.3116 1.2663 7.1329 20.1096 1.2658 13.1733 -29.6531 0.2064 -2.9251 -8.0703 0.0000 0.0000 0.0000 27.3896 20.4264 7.9235 -0.4050 -4.0857 11.3179 1.7388 -26.5318 -25.3132 -0.0161 -0.8200 2.2536 0.9282 1.8548 8.4223 0.0540 2.7414 -5.2055 -0.9416 1.3085 -10.2617 -7.3108 -2.5700 -4.6635 7.5655 -3.2326 2.6677 3.7021 -1.5118 1.9753 -0.0000 -0.0000 0.0000 -86.4958 19.3342 36.8038 20.0536 -30.7069 -5.5587 -0.0000 -0.0000 9.1228 0.7132 -33.5568 -0.3943 -7.1250 0.0000 -0.0000 -17.4157 -2.2508 18.9710 -0.0000 -0.0000 0.0000 85.1930 -19.6555 46.6698 -21.1095 31.9560 -6.1078 0.0000 0.0000 15.5857 -6.2527 -55.6910 5.1713 7.1250 -0.0000 -0.0000 78.6265 -74.1748 -62.0830
7.7208 15.5518 22.4082 -179.2820 5.8166 -178.4700 0.0000 0.0000 0.0000 -25.7607 -25.1353 4.3688 1.2690 7.1400 20.1308 1.2896 13.0410 -29.6959 0.1943 -2.8385 -7.8296 0.0000 0.0000 0.0000 27.4451 20.3576 8.0283 -0.4033 -4.0772 11.2939 1.7058 -26.4999 -25.5600 -0.0413 -1.3118 3.6072 0.9522 1.8626 8.5105 0.0511 2.7519 -5.1682 -0.9623 1.3100 -10.2714 -7.2979 -2.5731 -4.6449 7.4992 -3.3181 2.5801 3.6711 -1.5959 1.9463 0.0000 0.0000 0.0000 -86.4894 19.2881 36.8549 20.0155 -30.6611 -5.5393 -0.0000 -0.0000 9.0335 0.8830 -33.6800 -0.4897 -7.1250 0.0000 -0.0000 -17.3269 -2.3825 18.9038 0.0000 0.0000 0.0000 85.1910 -19.5900 46.6525 -21.1253 31.9743 -6.1162 0.0000 0.0000 15.6633 -5.4377 -55.6597 4.4942 7.1250 -0.0000 -0.0000 78.7345 -73.8780 -61.8446
7.7231 15.5507 22.4081 -179.2730 5.6536 -178.4690 0.0000 0.0000 0.0000 -25.7251 -25.1831 4.3293 1.2739 7.1534 20.1705 1.3292 12.7543 -29.7125 0.1570 -2.5528 -7.0359 0.0000 0.0000 0.0000 27.4931 20.4235 8.1055 -0.4000 -4.0604 11.2467 1.7205 -26.6215 -25.7053 -0.0584 -1.5600 4.2912 0.9060 1.8588 8.5501 0.1044 2.7441 -5.1418 -0.8790 1.3111 -10.2708 -7.2788 -2.6081 -4.6905 7.3422 -3.3502 2.5222 3.6102 -1.6124 1.9331 0.0000 0.0000 0.0000 -86.6404 19.2562 36.6629 20.0177 -30.6637 -5.5404 -0.0000 -0.0000 9.1117 0.8549 -33.7981 -0.4756 -7.1250 0.0000 -0.0000 -17.3441 -2.4928 18.9571 0.0000 0.0000 0.0000 85.1052 -19.4785 46.7410 -21.1221 31.9706 -6.1145 0.0000 0.0000 15.5107 -5.1706 -55.3123 4.2553 7.1250 -0.0000 -0.0000 77.6226 -73.7275 -60.5905
7.7243 15.5490 22.4081 -179.3080 5.4324 -178.4750 0.0000 0.0000 0.0000 -25.7538 -25.3038 4.3151 1.2795 7.1683 20.2150 1.3592 12.5273 -29.7188 0.1256 -2.2843 -6.2920 0.0000 0.0000 0.0000 27.4827 20.3489 8.1553 -0.3944 -4.0324 11.1679 1.7827 -26.8187 -25.5746 -0.0453 -1.3743 3.7792 0.8470 1.8304 8.5046 0.1363 2.6947 -5.0566 -0.7990 1.2924 -10.1542 -7.2496 -2.6290 -4.8208 7.2391 -3.3643 2.4941 3.5668 -1.6180 1.9451 0.0000 0.0000 0.0000 -86.7910 19.1644 36.4060 20.0587 -30.7131 -5.5613 -0.0000 -0.0000 9.1911 0.6060 -33.6462 -0.3358 -7.1250 0.0000 -0.0000 -17.4745 -2.3273 19.0645 0.0000 0.0000 0.0000 85.0367 -19.2625 46.8135 -21.0138 31.8445 -6.0572 0.0000 0.0000 15.6703 -5.5142 -54.9328 4.5178 7.1250 -0.0000 -0.0000 76.2213 -73.7833 -59.3059
7.7248 15.5477 22.4075 -179.2860 5.0712 -178.5380 0.0000 0.0000 0.0000 -25.7272 -25.3626 4.3357 1.2861 7.1861 20.2678 1.3870 12.2446 -29.6666 0.1164 -2.1997 -6.0577 0.0000 0.0000 0.0000 27.5375 20.0773 8.2109 -0.3902 -4.0111 11.1080 1.8117 -26.9382 -25.5820 -0.0426 -1.3318 3.6623 0.8676 1.7529 8.4277 0.1831 2.5876 -4.9260 -0.7358 1.2409 -9.9665 -7.2955 -2.6492 -4.8545 7.2372 -3.3812 2.3867 3.5737 -1.6262 1.9184 0.0000 -0.0000 0.0000 -86.9189 18.9966 36.2287 20.0483 -30.7004 -5.5560 -0.0000 -0.0000 9.1838 0.4911 -33.4264 -0.2705 -7.1250 0.0000 -0.0000 -17.5327 -2.1084 19.0684 0.0000 -0.0000 0.0000 84.9337 -19.0299 46.9409 -20.7993 31.5934 -5.9445 0.0000 0.0000 16.1582 -6.2037 -54.5083 5.0577 7.1250 -0.0000 -0.0000 74.5315 -73.9478 -57.8845
7.7288 15.5523 22.4127 -179.2570 5.3108 -178.3580 0.0000 0.0000 0.0000 -25.5862 -25.2839 4.0816 1.2847 7.1824 20.2570 1.3941 12.2685 -29.7334 0.1310 -2.3327 -6.4259 0.0000 0.0000 0.0000 27.4396 20.0840 7.9171 -0.3898 -4.0091 11.1023 1.7875 -26.6964 -25.2302 -0.0366 -1.2356 3.3973 0.7556 1.8661 8.3350 0.2313 2.7318 -4.9425 -0.6427 1.3215 -9.9354 -7.2689 -2.6765 -4.8207 7.1770 -3.4126 2.2489 3.5455 -1.6430 1.8666 0.0000 -0.0000 0.0000 -86.9586 18.9266 36.1955 20.0495 -30.7019 -5.5566 -0.0000 -0.0000 8.9874 0.6284 -33.3171 -0.3452 -7.1250 0.0000 -0.0000 -17.4575 -2.0154 18.9504 0.0000 -0.0000 0.0000 84.8617 -19.0147 47.0478 -20.7462 31.5308 -5.9166 0.0000 0.0000 16.5539 -6.4187 -54.3503 5.2232 7.1250 -0.0000 -0.0000 73.9110 -73.9918 -57.3476
